<?xml version="1.0" encoding="UTF-8" standalone="no"?>
<!DOCTYPE svg PUBLIC "-//W3C//DTD SVG 1.1//EN"
 "http://www.w3.org/Graphics/SVG/1.1/DTD/svg11.dtd">
<!-- Generated by graphviz version 14.1.2 (20260124.0452)
 -->
<!-- Pages: 1 -->
<svg width="543pt" height="161pt"
 viewBox="0.00 0.00 543.00 161.00" xmlns="http://www.w3.org/2000/svg" xmlns:xlink="http://www.w3.org/1999/xlink">
<g id="graph0" class="graph" transform="scale(1 1) rotate(0) translate(4 156.89)">
<polygon fill="white" stroke="none" points="-4,4 -4,-156.89 538.82,-156.89 538.82,4 -4,4"/>
<!-- A -->
<g id="node1" class="node">
<title>A</title>
<ellipse fill="none" stroke="black" cx="166.3" cy="-76.47" rx="27" ry="18"/>
<text xml:space="preserve" text-anchor="middle" x="166.3" y="-71.42" font-family="Times,serif" font-size="14.00">A</text>
</g>
<!-- B -->
<g id="node2" class="node">
<title>B</title>
<ellipse fill="none" stroke="black" cx="27" cy="-18" rx="27" ry="18"/>
<text xml:space="preserve" text-anchor="middle" x="27" y="-12.95" font-family="Times,serif" font-size="14.00">B</text>
</g>
<!-- A&#45;&#45;B -->
<g id="edge1" class="edge">
<title>A&#45;&#45;B</title>
<path fill="none" stroke="black" d="M142.98,-66.68C117.12,-55.82 75.64,-38.41 49.93,-27.62"/>
</g>
<!-- D -->
<g id="node4" class="node">
<title>D</title>
<ellipse fill="none" stroke="black" cx="350.4" cy="-76.46" rx="27" ry="18"/>
<text xml:space="preserve" text-anchor="middle" x="350.4" y="-71.41" font-family="Times,serif" font-size="14.00">D</text>
</g>
<!-- A&#45;&#45;D -->
<g id="edge4" class="edge">
<title>A&#45;&#45;D</title>
<path fill="none" stroke="black" d="M193.46,-76.46C228.27,-76.46 288.26,-76.46 323.12,-76.46"/>
</g>
<!-- C -->
<g id="node3" class="node">
<title>C</title>
<ellipse fill="none" stroke="black" cx="27" cy="-134.89" rx="27" ry="18"/>
<text xml:space="preserve" text-anchor="middle" x="27" y="-129.84" font-family="Times,serif" font-size="14.00">C</text>
</g>
<!-- B&#45;&#45;C -->
<g id="edge2" class="edge">
<title>B&#45;&#45;C</title>
<path fill="none" stroke="black" d="M27,-36.26C27,-58.22 27,-94.85 27,-116.75"/>
</g>
<!-- C&#45;&#45;A -->
<g id="edge3" class="edge">
<title>C&#45;&#45;A</title>
<path fill="none" stroke="black" d="M50.32,-125.11C76.18,-114.26 117.66,-96.87 143.37,-86.08"/>
</g>
<!-- E -->
<g id="node5" class="node">
<title>E</title>
<ellipse fill="none" stroke="black" cx="507.82" cy="-76.44" rx="27" ry="18"/>
<text xml:space="preserve" text-anchor="middle" x="507.82" y="-71.39" font-family="Times,serif" font-size="14.00">E</text>
</g>
<!-- D&#45;&#45;E -->
<g id="edge5" class="edge">
<title>D&#45;&#45;E</title>
<path fill="none" stroke="black" d="M377.82,-76.46C406.63,-76.45 451.66,-76.45 480.45,-76.45"/>
</g>
</g>
</svg>
